
<svg width="24" height="24" viewBox="0 0 24 24" fill="none" xmlns="http://www.w3.org/2000/svg">
<g id="Icon 24px">
<g id="smile_icon">
<path d="M8.34382 12.2727C8.34382 12.8182 8.90632 13.3636 9.46882 13.3636C10.3126 13.3636 10.8751 12.8182 10.8751 12.2727C10.8751 11.7273 10.3126 11.1818 9.46882 11.1818C8.90632 11.1818 8.34382 11.7273 8.34382 12.2727Z" fill="white"/>
<path d="M14.5311 13.3636C13.9686 13.3636 13.4061 12.8182 13.4061 12.2727C13.4061 11.7273 13.9686 11.1818 14.5311 11.1818C15.0936 11.1818 15.6561 11.7273 15.6561 12.2727C15.6561 12.8182 15.0936 13.3636 14.5311 13.3636Z" fill="white"/>
<path d="M11.9999 17.7273C13.4061 17.7273 14.5311 16.6364 14.8124 15.5455C14.8124 15.2727 14.8124 15 14.5311 15H9.46861C9.18736 15 9.18736 15.2727 9.18736 15.5455C9.46861 16.6364 10.5936 17.7273 11.9999 17.7273Z" fill="white"/>
<path fill-rule="evenodd" clip-rule="evenodd" d="M19.3125 15C20.4375 14.8182 21 14 21 12.5455C21 11.4545 20.7188 10.7273 20.1563 10.3636C19.9688 10.1818 19.6875 10.0909 19.3125 10.0909V9C18.75 3.54545 15.0938 3 12 3C8.90625 3 5.25 3.54545 4.6875 9V10.0909C4.3125 10.0909 4.03125 10.1818 3.84375 10.3636C3.28125 10.9091 3 11.6364 3 12.5455C3 13.8182 3.5625 14.6364 4.6875 15C4.96875 17.4545 7.21875 21 12 21C16.5 21 18.75 17.4545 19.3125 15ZM19.3125 11.4545C19.5938 11.4545 19.5938 11.7273 19.5938 12.5455C19.5938 13.6364 19.3125 13.6364 18.75 13.6364C18.4688 13.6364 18.1875 14.1818 18.1875 14.4545C17.9062 16.6364 15.9375 19.9091 12 19.9091C8.0625 19.9091 6.09375 16.6364 6.09375 14.4545C6 14.3636 5.90625 14.2424 5.8125 14.1212C5.625 13.8788 5.4375 13.6364 5.25 13.6364C4.6875 13.6364 4.40625 13.6364 4.40625 12.5455C4.40625 11.7273 4.6875 11.4545 4.6875 11.4545C4.6875 11.2727 4.875 11.1818 5.25 11.1818V12.2727C5.53125 12.5455 5.8125 12.5455 6.09375 12.2727C6.09375 12 6.375 10.3636 7.21875 8.45455C7.64846 8.87124 8.24231 9.12876 8.74952 9.34872C8.90625 9.41669 9.05472 9.48107 9.1875 9.54545L9.46875 9.27273C9.28125 8.90909 9.1875 8.54545 9.1875 8.18182C9.75 8.72727 10.875 9.54545 12.2813 9.54545C12.4688 9.54545 12.4688 9.45454 12.2813 9.27273C12.0938 9.09091 12 8.81818 12 8.45455C12.5625 9 13.9688 9.54545 15.375 9L14.5313 8.18182C15.0938 8.45454 15.9375 8.72727 16.7812 8.72727C17.5102 9.78751 17.7668 10.8477 17.9337 11.5371C18.0243 11.9116 18.0885 12.1767 18.1875 12.2727C18.1875 12.5455 18.75 12.5455 18.75 12.2727C18.75 12 18.75 11.7273 19.0312 11.1818C19.2188 11.1818 19.3125 11.2727 19.3125 11.4545Z" fill="white"/>
</g>
</g>
</svg>
