<svg xmlns="http://www.w3.org/2000/svg" width="32" height="32" viewBox="0 0 32 32" fill="none">
  <path d="M22.666 20.666V22.666C22.666 23.466 22.1327 23.9993 21.3327 23.9993C20.5327 23.9993 19.9993 23.466 19.9993 22.666V20.666H11.9993V22.666C11.9993 23.466 11.466 23.9993 10.666 23.9993C9.86601 23.9993 9.33268 23.466 9.33268 22.666V20.666H6.66602C5.73268 20.666 4.79935 20.3993 3.99935 19.9993V25.3327C3.99935 27.5993 5.73268 29.3327 7.99935 29.3327H23.9993C26.266 29.3327 27.9993 27.5993 27.9993 25.3327V19.9993C27.1993 20.3993 26.266 20.666 25.3327 20.666H22.666ZM27.9993 7.99935H22.666V6.66602C22.666 4.39935 20.9327 2.66602 18.666 2.66602H13.3327C11.066 2.66602 9.33268 4.39935 9.33268 6.66602V7.99935H3.99935C3.19935 7.99935 2.66602 8.53268 2.66602 9.33268V14.666C2.66602 16.9327 4.39935 18.666 6.66602 18.666H25.3327C27.5993 18.666 29.3327 16.9327 29.3327 14.666V9.33268C29.3327 8.53268 28.7993 7.99935 27.9993 7.99935ZM19.9993 7.99935H11.9993V6.66602C11.9993 5.86602 12.5327 5.33268 13.3327 5.33268H18.666C19.466 5.33268 19.9993 5.86602 19.9993 6.66602V7.99935Z" fill="#006FEB"/>
</svg>