
<svg width="24" height="24" viewBox="0 0 24 24" fill="none" xmlns="http://www.w3.org/2000/svg">
<g id="Icon 24px">
<path id="trophy_icon" fill-rule="evenodd" clip-rule="evenodd" d="M20 6.13333V7.73333C20 9.6 18.4 11.2 16.2667 11.2C15.7333 12.2667 14.6667 13.3333 13.6 13.6V16H16C16 16 16.0889 16.0889 16.2667 16.2667L17.6 19.4667C17.6 19.7333 17.3333 20 17.0667 20H6.66667C6.4 20 6.4 19.7333 6.4 19.4667L7.73333 16.2667C7.73333 16.0889 7.82222 16 8 16H10.4V13.6C9.06667 13.3333 8.26667 12.5333 7.73333 11.2C5.33333 11.2 4 9.6 4 7.73333V6.13333C4 5.33333 4.53333 4.8 5.06667 4.8H7.2V4.53333C7.2 4.17778 7.28889 4 7.46667 4H16.2667C16.6222 4 16.8 4.17778 16.8 4.53333V4.8H18.6667C19.4667 4.8 20 5.33333 20 6.13333ZM7.2 9.6V6.4H5.6V7.73333C5.6 8.8 6.4 9.6 7.2 9.6ZM18.4 6.4H16.8V9.6C17.6 9.6 18.4 8.8 18.4 7.73333V6.4Z" fill="white"/>
</g>
</svg>
