
<svg width="18" height="19" viewBox="0 0 18 19" fill="none" xmlns="http://www.w3.org/2000/svg">
<g id="Icon 18px">
<path id="Vector" d="M14.7852 10.464V15.2854C14.7852 15.4595 14.7215 15.6102 14.5943 15.7374C14.4671 15.8647 14.3164 15.9283 14.1423 15.9283H10.2852V12.0711H7.71373V15.9283H3.85659C3.68248 15.9283 3.53181 15.8647 3.40458 15.7374C3.27734 15.6102 3.21373 15.4595 3.21373 15.2854V10.464C3.21373 10.4573 3.2154 10.4473 3.21875 10.4339C3.2221 10.4205 3.22377 10.4104 3.22377 10.4037L8.99944 5.64258L14.7751 10.4037C14.7818 10.4171 14.7852 10.4372 14.7852 10.464ZM17.0251 9.77093L16.4023 10.5142C16.3488 10.5745 16.2785 10.6113 16.1914 10.6247H16.1613C16.0742 10.6247 16.0039 10.6013 15.9503 10.5544L8.99944 4.75865L2.04855 10.5544C1.96819 10.608 1.88783 10.6314 1.80748 10.6247C1.72042 10.6113 1.65011 10.5745 1.59654 10.5142L0.973772 9.77093C0.920201 9.70396 0.896763 9.62528 0.90346 9.53488C0.910156 9.44447 0.946987 9.37249 1.01395 9.31892L8.23605 3.30218C8.45034 3.12807 8.7048 3.04102 8.99944 3.04102C9.29409 3.04102 9.54855 3.12807 9.76284 3.30218L12.2137 5.35128V3.39258C12.2137 3.29883 12.2439 3.22182 12.3041 3.16155C12.3644 3.10128 12.4414 3.07115 12.5352 3.07115H14.4637C14.5575 3.07115 14.6345 3.10128 14.6948 3.16155C14.755 3.22182 14.7852 3.29883 14.7852 3.39258V7.49079L16.9849 9.31892C17.0519 9.37249 17.0887 9.44447 17.0954 9.53488C17.1021 9.62528 17.0787 9.70396 17.0251 9.77093Z" fill="white"/>
</g>
</svg>
