<svg xmlns="http://www.w3.org/2000/svg" width="32" height="32" viewBox="0 0 32 32" fill="none">
  <path d="M15.9993 12.6927C15.3454 12.6927 14.706 12.8866 14.1623 13.25C13.6185 13.6133 13.1947 14.1297 12.9444 14.7339C12.6941 15.3382 12.6286 16.003 12.7562 16.6444C12.8838 17.2859 13.1987 17.8751 13.6612 18.3375C14.1236 18.8 14.7128 19.1149 15.3542 19.2425C15.9957 19.3701 16.6605 19.3046 17.2648 19.0543C17.869 18.804 18.3854 18.3802 18.7487 17.8364C19.1121 17.2927 19.306 16.6533 19.306 15.9993C19.306 15.5651 19.2205 15.1351 19.0543 14.7339C18.8881 14.3328 18.6446 13.9682 18.3375 13.6612C18.0305 13.3541 17.6659 13.1106 17.2648 12.9444C16.8636 12.7782 16.4336 12.6927 15.9993 12.6927ZM29.2393 9.42602C29.2323 8.39636 29.0427 7.37611 28.6793 6.41268C28.4117 5.7077 27.9976 5.06747 27.4644 4.53426C26.9312 4.00105 26.291 3.58697 25.586 3.31935C24.6226 2.95597 23.6023 2.76636 22.5727 2.75935C20.8527 2.66602 20.346 2.66602 15.9993 2.66602C11.6527 2.66602 11.146 2.66602 9.42602 2.75935C8.39636 2.76636 7.37611 2.95597 6.41268 3.31935C5.7077 3.58697 5.06747 4.00105 4.53426 4.53426C4.00105 5.06747 3.58697 5.7077 3.31935 6.41268C2.95597 7.37611 2.76636 8.39636 2.75935 9.42602C2.66602 11.146 2.66602 11.6527 2.66602 15.9993C2.66602 20.346 2.66602 20.8527 2.75935 22.5727C2.7737 23.606 2.96305 24.6293 3.31935 25.5993C3.58579 26.3011 3.99952 26.9376 4.53268 27.466C5.06361 28.0024 5.7052 28.4165 6.41268 28.6793C7.37611 29.0427 8.39636 29.2323 9.42602 29.2393C11.146 29.3327 11.6527 29.3327 15.9993 29.3327C20.346 29.3327 20.8527 29.3327 22.5727 29.2393C23.6023 29.2323 24.6226 29.0427 25.586 28.6793C26.2935 28.4165 26.9351 28.0024 27.466 27.466C27.9992 26.9376 28.4129 26.3011 28.6793 25.5993C29.0424 24.6312 29.2319 23.6066 29.2393 22.5727C29.3327 20.8527 29.3327 20.346 29.3327 15.9993C29.3327 11.6527 29.3327 11.146 29.2393 9.42602ZM25.8527 20.0927C25.8099 20.9155 25.6343 21.726 25.3327 22.4927C25.0738 23.1323 24.689 23.7133 24.2012 24.2012C23.7133 24.689 23.1323 25.0738 22.4927 25.3327C21.7187 25.6175 20.9037 25.7751 20.0793 25.7993C19.026 25.7993 18.746 25.7993 15.9993 25.7993C13.2527 25.7993 12.9727 25.7993 11.9193 25.7993C11.095 25.7751 10.28 25.6175 9.50602 25.3327C8.84482 25.087 8.24772 24.695 7.75935 24.186C7.27624 23.7077 6.90314 23.1298 6.66602 22.4927C6.38009 21.7195 6.22682 20.9036 6.21268 20.0793C6.21268 19.026 6.21268 18.746 6.21268 15.9993C6.21268 13.2527 6.21268 12.9727 6.21268 11.9193C6.22682 11.0951 6.38009 10.2792 6.66602 9.50602C6.91172 8.84482 7.30371 8.24772 7.81268 7.75935C8.29313 7.27885 8.87037 6.90614 9.50602 6.66602C10.28 6.38122 11.095 6.22363 11.9193 6.19935C12.9727 6.19935 13.2527 6.19935 15.9993 6.19935C18.746 6.19935 19.026 6.19935 20.0793 6.19935C20.9037 6.22363 21.7187 6.38122 22.4927 6.66602C23.1539 6.91172 23.751 7.30371 24.2393 7.81268C24.7225 8.29101 25.0956 8.86886 25.3327 9.50602C25.6175 10.28 25.7751 11.095 25.7993 11.9193C25.7993 12.9727 25.7993 13.2527 25.7993 15.9993C25.7993 18.746 25.8927 19.026 25.8527 20.0793V20.0927ZM23.7193 10.1727C23.5606 9.74199 23.3103 9.35087 22.9857 9.0263C22.6612 8.70173 22.27 8.45143 21.8393 8.29268C21.248 8.0877 20.6251 7.9884 19.9993 7.99935C18.9593 7.99935 18.666 7.99935 15.9993 7.99935C13.3327 7.99935 13.0393 7.99935 11.9993 7.99935C11.3704 8.0055 10.7474 8.12286 10.1593 8.34602C9.73525 8.49756 9.34827 8.73763 9.02413 9.05028C8.69998 9.36293 8.4461 9.741 8.27935 10.1593C8.08572 10.7532 7.99112 11.3748 7.99935 11.9993C7.99935 13.0393 7.99935 13.3327 7.99935 15.9993C7.99935 18.666 7.99935 18.9593 7.99935 19.9993C8.01257 20.6276 8.12971 21.2493 8.34602 21.8393C8.50477 22.27 8.75506 22.6612 9.07963 22.9857C9.40421 23.3103 9.79533 23.5606 10.226 23.7193C10.7949 23.9286 11.3936 24.0456 11.9993 24.066C13.0393 24.066 13.3327 24.066 15.9993 24.066C18.666 24.066 18.9593 24.066 19.9993 24.066C20.6283 24.0599 21.2513 23.9425 21.8393 23.7193C22.27 23.5606 22.6612 23.3103 22.9857 22.9857C23.3103 22.6612 23.5606 22.27 23.7193 21.8393C23.9425 21.2513 24.0599 20.6283 24.066 19.9993C24.066 18.9593 24.066 18.666 24.066 15.9993C24.066 13.3327 24.066 13.0393 24.066 11.9993C24.0664 11.3697 23.9488 10.7456 23.7193 10.1593V10.1727ZM15.9993 21.0927C15.3311 21.0927 14.6694 20.9608 14.0522 20.7047C13.435 20.4486 12.8744 20.0732 12.4025 19.6001C11.9306 19.1269 11.5567 18.5653 11.3022 17.9475C11.0477 17.3296 10.9176 16.6676 10.9193 15.9993C10.9194 14.9914 11.2184 14.0061 11.7787 13.1683C12.3389 12.3304 13.1352 11.6776 14.0666 11.2925C14.9981 10.9074 16.0229 10.8073 17.0113 11.0049C17.9996 11.2025 18.9071 11.6889 19.6189 12.4026C20.3307 13.1162 20.8147 14.025 21.0098 15.0139C21.2048 16.0028 21.102 17.0273 20.7145 17.9577C20.3269 18.8882 19.672 19.6827 18.8327 20.2408C17.9933 20.7988 17.0073 21.0953 15.9993 21.0927ZM21.3327 11.906C21.0379 11.8748 20.7652 11.7356 20.5669 11.5153C20.3687 11.295 20.259 11.0091 20.259 10.7127C20.259 10.4163 20.3687 10.1304 20.5669 9.91005C20.7652 9.68972 21.0379 9.55055 21.3327 9.51935C21.6274 9.55055 21.9002 9.68972 22.0984 9.91005C22.2967 10.1304 22.4064 10.4163 22.4064 10.7127C22.4064 11.0091 22.2967 11.295 22.0984 11.5153C21.9002 11.7356 21.6274 11.8748 21.3327 11.906Z" fill="#006FEB"/>
</svg>