<svg xmlns="http://www.w3.org/2000/svg" width="18" height="24" viewBox="0 0 18 24" fill="none">
  <path d="M9 0C4.02429 0 0 3.85824 0 8.62866C0 13.7689 5.68286 20.8567 8.02286 23.5562C8.53714 24.1479 9.47571 24.1479 9.99 23.5562C12.3171 20.8567 18 13.7689 18 8.62866C18 3.85824 13.9757 0 9 0ZM9 11.7103C7.22571 11.7103 5.78571 10.3297 5.78571 8.62866C5.78571 6.92758 7.22571 5.547 9 5.547C10.7743 5.547 12.2143 6.92758 12.2143 8.62866C12.2143 10.3297 10.7743 11.7103 9 11.7103Z" fill="#006FEB"/>
</svg>