
<svg width="24" height="24" viewBox="0 0 24 24" fill="none" xmlns="http://www.w3.org/2000/svg">
<g id="Icon 24px">
<g id="phone_icon">
<path fill-rule="evenodd" clip-rule="evenodd" d="M13.6068 12.9871C16.7149 11.8869 18.1277 10.7867 18.1277 10.7867C19.5404 9.68645 20.3881 8.31119 19.823 6.38581C19.5404 4.73549 18.1277 3.36023 16.4323 3.08518C13.6068 2.53507 11.3464 4.73549 11.3464 7.21097C11.3464 9.13635 12.4766 10.7867 13.8893 11.3368L13.3242 12.712L13.6068 12.9871ZM15.0196 7.76108H13.3242V6.66087H15.0196V5.01055H16.1498V6.66087H17.8451V7.76108H16.4323C16.244 7.76108 16.1498 7.85276 16.1498 8.03613V9.4114H15.0196V7.76108Z" fill="white"/>
<path d="M5.69533 14.0873C6.54299 15.4626 7.39066 16.5628 8.52087 17.3879C9.36853 18.2131 10.7813 19.0382 12.1941 19.8634C12.1941 19.8634 14.4545 21.2387 17.5626 20.9636C18.4103 20.9636 18.9754 20.4135 18.9754 19.8634L19.2579 17.663C19.2579 17.1129 19.2579 16.8378 18.6928 16.8378L15.5847 16.0127H14.7371L13.0417 17.1129C12.8534 17.2963 12.7592 17.2963 12.7592 17.1129C11.9115 16.8378 11.0639 16.2877 10.2162 15.4626C9.68411 15.1173 9.26335 14.5552 8.88404 14.0485C8.65908 13.748 8.4487 13.4669 8.23832 13.2621V12.9871L9.08598 11.0617C9.27435 10.8783 9.36854 10.6033 9.36854 10.2366L8.23832 7.48602C8.23832 6.93592 7.67321 6.66086 7.39066 6.93592L5.13022 7.48602C4.28255 7.48602 4 8.31118 4 8.86129C4 11.8869 5.69533 14.0873 5.69533 14.0873Z" fill="white"/>
</g>
</g>
</svg>
