
<svg width="24" height="24" viewBox="0 0 24 24" fill="none" xmlns="http://www.w3.org/2000/svg">
<g id="Icon 24px">
<g id="group_icon">
<path d="M12.1331 10.0263C13.7331 10.0263 14.7998 8.71053 14.7998 7.13158C14.7998 5.81579 13.7331 4.5 12.1331 4.5C10.5331 4.5 9.19982 5.81579 9.19982 7.13158C9.19982 8.71053 10.5331 10.0263 12.1331 10.0263Z" fill="white"/>
<path d="M17.4667 16.0789C17.4667 15.2018 17.2 14.3246 16.6667 13.4474C16.4889 13.2719 16.4 13.0965 16.4 12.9211L15.8667 12.3947C15.6889 12.2193 15.5112 12.1316 15.3334 12.1316C14.2667 11.4298 13.2001 10.9912 12.1334 10.8158C10.889 10.9912 9.8223 11.4298 8.93342 12.1316C8.57787 12.307 8.22231 12.5702 7.86676 12.9211C7.68898 13.0965 7.60009 13.2719 7.60009 13.4474C7.06676 14.3246 6.8001 15.2018 6.8001 16.0789V18.7105C6.8001 19.2368 7.06676 19.5 7.60009 19.5H16.4C16.9334 19.5 17.4667 19.2368 17.4667 18.7105V16.0789Z" fill="white"/>
<path d="M20.9332 7.13158C20.9332 8.71053 19.5999 10.0263 17.9999 10.0263C16.3999 10.0263 15.3332 8.71053 15.3332 7.13158C15.3332 5.81579 16.3999 4.5 17.9999 4.5C19.5999 4.5 20.9332 5.81579 20.9332 7.13158Z" fill="white"/>
<path d="M22 17.3947V15.0263C22 13.9737 21.7333 12.9211 20.9333 12.1316C20.1333 11.3421 19.0667 10.8158 18 10.8158C17.2889 10.9912 16.6667 11.1667 16.1334 11.3421C16.3111 11.5175 16.4 11.693 16.4 11.8684C16.7556 12.0439 17.0223 12.2193 17.2 12.3947C17.2 12.5702 17.2889 12.7456 17.4667 12.9211C18 13.7105 18.2667 15.0263 18.2667 16.0789V18.4474H21.2C21.7333 18.4474 22 17.9211 22 17.3947Z" fill="white"/>
<path d="M8.13329 11.3421L7.06663 12.3947C7.06663 12.5702 6.97775 12.7456 6.79997 12.9211C6.08886 13.9737 5.73331 15.0263 5.73331 16.0789V18.4474H3.06666C2.53333 18.4474 2 17.9211 2 17.3947V15.0263C2 12.6579 3.86665 10.8158 5.99997 10.8158L8.13329 11.3421Z" fill="white"/>
<path d="M5.99997 10.0263C7.59996 10.0263 8.93329 8.71053 8.93329 7.13158C8.93329 5.81579 7.59996 4.5 5.99997 4.5C4.66665 4.5 3.33332 5.81579 3.33332 7.13158C3.33332 8.71053 4.66665 10.0263 5.99997 10.0263Z" fill="white"/>
</g>
</g>
</svg>
