
<svg width="24" height="24" viewBox="0 0 24 24" fill="none" xmlns="http://www.w3.org/2000/svg">
<g id="Icon 24px">
<path id="arrow_icon" d="M20 12.0154C20 12.1232 19.9713 12.231 19.914 12.3389C19.914 12.3928 19.914 12.4467 19.914 12.5006C19.8566 12.5545 19.828 12.6085 19.828 12.6624C19.7706 12.7163 19.7419 12.7702 19.7419 12.8241C19.7419 12.878 19.7133 12.905 19.6559 12.905C19.5986 13.0128 19.5125 13.1207 19.3978 13.2285L14.8387 17.5148C14.1505 18.1617 12.9462 18.1617 12.2581 17.5148C11.5699 16.8678 11.5699 15.7356 12.2581 15.0886L13.8065 13.7137H5.80645C4.77419 13.7137 4 12.905 4 12.0154C4 11.0449 4.77419 10.317 5.80645 10.317H13.7204L12.2581 8.86133C11.5699 8.21435 11.5699 7.163 12.2581 6.51601C13.0323 5.86903 14.1505 5.78815 14.8387 6.51601L19.3978 10.8023C19.5125 10.8562 19.5986 10.9371 19.6559 11.0449C19.6559 11.0988 19.6846 11.1527 19.7419 11.2067C19.7419 11.2606 19.7706 11.3145 19.828 11.3684C19.828 11.4223 19.8566 11.4762 19.914 11.5301C19.914 11.5841 19.914 11.638 19.914 11.6919C19.9713 11.7997 20 11.9076 20 12.0154Z" fill="white"/>
</g>
</svg>
