<svg xmlns="http://www.w3.org/2000/svg" width="32" height="32" viewBox="0 0 32 32" fill="none">
  <path d="M20.4802 4.79922C23.0383 4.79922 25.1202 6.8805 25.1202 9.4389C25.1202 11.9976 23.0383 14.0792 20.4802 14.0792C17.9215 14.0792 15.8402 11.9976 15.8402 9.4389C15.8402 6.8805 17.9215 4.79922 20.4802 4.79922ZM20.4802 3.19922C17.0332 3.19922 14.2402 5.99282 14.2402 9.4389C14.2402 12.8856 17.0332 15.6792 20.4802 15.6792C23.9266 15.6792 26.7202 12.8856 26.7202 9.4389C26.7202 5.99282 23.9266 3.19922 20.4802 3.19922Z" fill="#006FEB"/>
  <path d="M21.6638 6.55469L22.9182 7.54765L19.1294 12.3336L17.875 11.3406L21.6638 6.55469Z" fill="#006FEB"/>
  <path d="M22.3993 12.1599C23.0179 12.1599 23.5193 11.6585 23.5193 11.0399C23.5193 10.4214 23.0179 9.91992 22.3993 9.91992C21.7807 9.91992 21.2793 10.4214 21.2793 11.0399C21.2793 11.6585 21.7807 12.1599 22.3993 12.1599Z" fill="#006FEB"/>
  <path d="M18.2391 8.9607C18.8577 8.9607 19.3591 8.45926 19.3591 7.8407C19.3591 7.22214 18.8577 6.7207 18.2391 6.7207C17.6206 6.7207 17.1191 7.22214 17.1191 7.8407C17.1191 8.45926 17.6206 8.9607 18.2391 8.9607Z" fill="#006FEB"/>
  <path d="M20.4793 17.2791C16.1561 17.2791 12.6393 13.762 12.6393 9.43882C12.6393 7.84362 13.1193 6.35882 13.9411 5.11914H5.2793V25.5991C5.2793 27.3591 6.7193 28.7991 8.4793 28.7991H21.5993C23.3593 28.7991 24.7993 27.3591 24.7993 25.5991V15.9771C23.5192 16.8276 22.0162 17.2806 20.4793 17.2791ZM15.1993 24.7991H9.7593V23.1991H15.1993V24.7991ZM15.1993 20.9591H9.7593V19.3591H15.1993V20.9591ZM20.5145 21.3291V22.9291H19.2508C19.2447 23.122 19.239 23.3127 19.2329 23.4916H21.1651V25.0916H17.3625V23.4916H17.6323C17.639 23.2993 17.6447 23.1102 17.6502 22.9291H17.3625V21.3291H17.6739C17.687 20.8164 17.8915 20.3255 18.2627 19.931C18.7407 19.4222 19.4339 19.1303 20.1628 19.1303C20.5881 19.1303 21.0089 19.2331 21.3795 19.4279L20.6351 20.8443C20.2515 20.643 19.7052 20.7326 19.4284 21.027C19.3644 21.0951 19.2953 21.1998 19.2783 21.3291H20.5145Z" fill="#006FEB"/>
</svg>