
<svg width="24" height="24" viewBox="0 0 24 24" fill="none" xmlns="http://www.w3.org/2000/svg">
<g id="Frame 656">
<path id="Vector" d="M19.5 15.5331V18.2603C19.5 18.8802 19 19.5 18.375 19.5C10.75 19.5 4.5 13.3017 4.5 5.73967C4.5 5.11983 5 4.5 5.625 4.5H8.5C9.125 4.5 9.625 5.11983 9.625 5.73967C9.625 6.64876 9.79167 7.51653 10.125 8.34298C10.25 8.83884 10.125 9.33471 9.75 9.58265L8.5 11.1942C9.5 13.1777 10.875 14.4174 12.75 15.4091L14.5 14.1694C14.75 13.9215 15.25 13.7975 15.625 13.9215C16.5417 14.2521 17.4583 14.4174 18.375 14.4174C19 14.4174 19.5 14.9132 19.5 15.5331Z" fill="#006FEB"/>
</g>
</svg>
