
<svg width="24" height="24" viewBox="0 0 24 24" fill="none" xmlns="http://www.w3.org/2000/svg">
<g id="Icon 24px">
<g id="truck_icon">
<path fill-rule="evenodd" clip-rule="evenodd" d="M21 16.0645V12C21 11.7742 21 11.5484 20.7662 11.5484L17.4935 8.16129C17.3766 8.16129 17.2597 8.10484 17.1429 8.04839C17.026 7.99194 16.9091 7.93549 16.7922 7.93549H14.6883V5.45161C14.6883 5.22581 14.4545 5 13.987 5H3.7013C3.46753 5 3 5.22581 3 5.45161V16.0645C3 16.5161 3.46753 16.7419 3.7013 16.7419H5.1039C5.1039 15.3871 6.27273 14.2581 7.67532 14.2581C9.07792 14.2581 10.2468 15.3871 10.2468 16.7419H14.6883C14.6883 15.3871 15.8571 14.2581 17.2597 14.2581C18.5014 14.2581 19.5598 15.1428 19.7864 16.2857C19.4977 15.873 19.0081 15.6129 18.4287 15.6129C17.2599 15.6129 16.5586 16.2903 16.5586 17.1935C16.5586 18.3226 17.2599 19 18.4287 19C19.3638 19 20.0651 18.3226 20.0651 17.1935C20.0651 17.0353 20.0435 16.8839 20.003 16.7419H20.5325C20.7662 16.7419 21 16.5161 21 16.0645ZM16.5584 9.29033L19.1299 11.7742V12.4516H15.3896V9.29033H16.5584Z" fill="white"/>
<path d="M7.67544 19C6.74037 19 6.03908 18.3226 6.03908 17.1935C6.03908 16.2903 6.74037 15.6129 7.67544 15.6129C8.84427 15.6129 9.54557 16.2903 9.54557 17.1935C9.54557 18.3226 8.84427 19 7.67544 19Z" fill="white"/>
</g>
</g>
</svg>
